<?xml version="1.0" encoding="UTF-8"?>
<svg id="_레이어_2" xmlns="http://www.w3.org/2000/svg" viewBox="0 0 459.71 309.48">
    <defs>
        <style>.cls-1{fill:#7db74b;}.cls-2{fill:#5a8835;}</style>
    </defs>
    <g id="_레이어_1-2">
        <g>
            <path class="cls-2"
                  d="M100.07,233.33c-8.1,6.62-18.3,10.76-29.55,10.76H32.69c-18.06,0-32.69,14.64-32.69,32.7s14.64,32.69,32.69,32.69h37.82c22.97,0,44.33-6.95,62.15-18.83-19.95-17.5-28.77-41-32.59-57.32Z"/>
            <g>
                <path class="cls-1"
                      d="M427.01,244.09h-37.82c-25.56,0-46.38-20.53-46.94-45.96,0-.35,.03-.69,.03-1.04v-61.6c0-18.06-14.64-32.69-32.7-32.69s-32.7,14.63-32.7,32.69v60.04c-.02,.52-.08,1.03-.08,1.56,0,.35,.02,.69,.03,1.04-.56,25.43-21.38,45.96-46.94,45.96s-46.99-21.08-46.99-46.99v-61.6c0-18.06-14.64-32.69-32.7-32.69s-32.7,14.63-32.7,32.69v61.6c0,61.97,50.42,112.38,112.38,112.38,31.1,0,59.28-12.7,79.65-33.18,20.37,20.48,48.55,33.18,79.65,33.18h37.82c18.06,0,32.69-14.64,32.69-32.69s-14.63-32.69-32.69-32.69Z"/>
                <circle class="cls-1" cx="316.34" cy="35.7" r="35.7" transform="translate(162.3 314.29) rotate(-67.5)"/>
                <circle class="cls-1" cx="150.21" cy="35.7" r="35.7"/>
            </g>
        </g>
    </g>
</svg>
